<svg xmlns="http://www.w3.org/2000/svg" width="602" height="181" viewBox="0 0 602 181" fill="none"><path d="M309.01 160.792V162.582C309.01 166.902 307.32 170.772 304.44 173.552C301.56 176.332 297.24 178.072 292.38 178.072C288.95 178.072 285.88 177.232 283.15 175.642C280.47 174.002 278.39 171.822 276.9 168.992C275.41 166.212 274.67 163.082 274.67 159.612C274.67 154.602 276.51 149.882 279.58 146.562C281.12 144.872 283 143.532 285.24 142.592C287.47 141.602 289.91 141.102 292.54 141.102C296.01 141.102 299.34 142.092 301.72 143.632C302.91 144.372 303.95 145.222 304.9 146.212C306.79 148.142 307.88 150.232 308.33 152.312L306.54 152.912C306.19 150.782 304.26 147.602 301.08 145.372C299 143.932 295.87 142.842 292.49 142.842C287.82 142.842 283.66 144.732 280.98 147.752C278.25 150.782 276.61 155.002 276.61 159.462C276.61 162.592 277.25 165.412 278.59 168.002C279.88 170.532 281.72 172.572 284.15 174.062C286.58 175.602 289.36 176.342 292.49 176.342C300.28 176.342 307.13 171.082 307.13 162.692V162.542H290.4V160.802H309.01V160.792Z" fill="white"></path><path d="M345.58 141.491V163.481C345.58 168.001 344.44 171.521 342.16 174.151C339.88 176.781 336.65 178.071 332.48 178.071C323.8 178.071 319.28 172.161 319.28 163.581V141.491H321.22V163.531C321.22 167.701 322.21 170.881 324.25 173.061C326.24 175.241 329.01 176.341 332.54 176.341C340.28 176.341 343.66 171.131 343.66 163.591V141.501H345.6L345.58 141.491Z" fill="white"></path><path d="M352 177.671L367.98 141.491H370.06L385.99 177.671H383.96L379.44 167.351H358.5L353.93 177.671H351.99H352ZM378.71 165.611L368.93 143.571L359.25 165.611H378.71Z" fill="white"></path><path d="M383.01 143.221V141.481H409.07V143.221H397.11V177.661H395.22V143.221H383.01Z" fill="white"></path><path d="M440.25 143.221H420.5V158.311H438.71V160.101H420.5V175.931H440.5V177.671H418.56V141.491H440.25V143.231V143.221Z" fill="white"></path><path d="M453.62 177.671H451.73V141.491H454.26L470.19 175.491L486.02 141.491H488.55V177.671H486.66V144.221L471.13 177.671H469.19L453.61 144.371V177.671H453.62Z" fill="white"></path><path d="M497.3 177.671L513.28 141.491H515.36L531.29 177.671H529.26L524.74 167.351H503.8L499.23 177.671H497.29H497.3ZM524 165.611L514.22 143.571L504.54 165.611H524Z" fill="white"></path><path d="M541.92 175.931H559.99V177.671H540.04V141.491H541.93V175.931H541.92Z" fill="white"></path><path d="M564.66 177.671L580.64 141.491H582.72L598.65 177.671H596.62L592.1 167.351H571.16L566.59 177.671H564.66ZM591.36 165.611L581.58 143.571L571.9 165.611H591.36Z" fill="white"></path><path opacity="0.17" d="M82.2799 171.281C73.9099 170.271 62.5399 168.001 55.1899 163.861C47.8499 159.721 41.3899 154.181 36.1899 147.551C30.9899 140.921 27.1499 133.331 24.8799 125.211C22.6099 117.091 21.9699 108.611 22.9799 100.251H49.4899C48.9099 105.041 49.9999 113.191 51.2999 117.841C52.5999 122.491 54.7999 126.831 57.7699 130.631C60.7499 134.431 64.4399 137.601 68.6399 139.971C72.8399 142.341 77.4699 143.851 82.2599 144.431V171.281H82.2799Z" fill="white"></path><path d="M232.08 180.121V171.322H82.2695V144.291H232.08V136.031L258.9 157.751L232.08 180.121Z" fill="url(#paint0_linear_223_1155)"></path><path opacity="0.5" d="M44.6162 54.7001L44.665 54.7686C46.7081 57.6358 49.2861 60.0803 52.2503 61.9653C55.2417 63.8671 58.5733 65.1593 62.0546 65.776C65.5368 66.387 69.096 66.3069 72.5361 65.5414C75.9241 64.7819 79.1258 63.3795 81.969 61.3949L87.0075 57.8045L80.3334 48.4384L75.465 51.9075C73.8203 53.0691 71.9278 53.854 69.9593 54.2949C67.9909 54.7358 65.9527 54.7764 63.9602 54.4278C61.9653 54.0756 60.0579 53.3353 58.3454 52.2494C56.647 51.1689 55.1723 49.7687 54.0041 48.1294L53.9748 48.0882C51.8036 45.0125 50.8197 41.2562 51.2046 37.5277C51.5899 33.7782 53.3346 30.3166 56.1077 27.7873C57.5853 26.4344 59.3223 25.388 61.2093 24.7104C63.1031 24.028 65.1181 23.7246 67.1367 23.822C69.1578 23.9228 71.1414 24.4174 72.9741 25.2833C74.8068 26.1492 75.7181 26.6219 77.0894 28.1216L74.0004 30.3228L87.944 34.2555L88.9999 19.6345L86.445 21.4551C84.0491 18.8342 81.0045 16.3756 77.8013 14.8678C74.5991 13.3541 71.1347 12.4874 67.6074 12.3172C64.0835 12.1445 60.5596 12.6699 57.2473 13.8667C53.9486 15.0538 50.9267 16.8813 48.3406 19.2412C48.327 19.2509 48.31 19.263 48.2989 19.2762C43.4808 23.6867 40.4488 29.7255 39.7768 36.2544C39.0975 42.7731 40.8251 49.3295 44.6162 54.7001Z" fill="white"></path><path d="M149.73 106.901V107.101C149.73 115.461 148.1 123.741 144.94 131.471C141.75 139.271 137.05 146.361 131.12 152.351C125.18 158.331 118.13 163.081 110.36 166.341C102.7 169.541 94.51 171.241 86.21 171.321H0V144.011H85.71C90.53 143.991 95.31 142.901 99.76 141.041C104.21 139.181 108.24 136.451 111.64 133.031C115.04 129.601 117.73 125.541 119.56 121.081C121.37 116.651 122.3 111.911 122.3 107.131V107.011C122.26 98.0714 118.96 89.4514 113.03 82.7714C107.07 76.0514 98.86 71.7614 89.94 70.6914C85.18 70.1114 80.34 70.4814 75.72 71.7714C71.08 73.0614 66.73 75.2514 62.93 78.2214C59.13 81.2014 55.95 84.8914 53.58 89.0914C51.21 93.2914 50.09 95.4614 49.5 100.251H58.58L36.86 127.071L14.49 100.251H22C23.03 91.8814 25.55 82.9314 29.7 75.6014C33.84 68.2614 39.39 61.8114 46.03 56.6214C52.66 51.4314 60.26 47.5914 68.38 45.3414C76.46 43.0914 84.89 42.4614 93.21 43.4614C93.25 43.4614 93.3 43.4614 93.34 43.4714C108.86 45.3614 123.16 52.8614 133.54 64.5614C143.92 76.2314 149.66 91.2914 149.73 106.901Z" fill="white"></path><path d="M356.45 97.7614H371.27L363.75 88.9014L356.45 97.7614Z" fill="white"></path><path d="M189.44 126.001H165.52V116.921H188.96C192.8 116.921 195.92 113.761 195.92 109.951V109.141C195.92 105.331 192.8 102.171 188.96 102.171H176.32C167.84 102.171 160.88 95.1115 160.88 86.5215V84.8215C160.88 76.2215 167.84 69.2515 176.32 69.2515H200.24V78.2515H176.72C172.96 78.2515 169.84 81.4115 169.84 85.3115V86.0415C169.84 89.9315 172.96 93.1015 176.72 93.1015H189.44C197.92 93.1015 204.88 100.161 204.88 108.751V110.371C204.88 118.971 197.92 126.021 189.44 126.021V126.001Z" fill="white"></path><path d="M232.22 68.5815H239.58C249.02 68.5815 257.26 74.2615 261.02 82.4515L252.22 86.0215C249.42 80.9915 244.06 77.5915 238.06 77.5915C234.38 77.5915 231.42 77.3515 227.9 78.7315C221.74 81.0815 217.5 87.2415 217.5 94.1415V101.442C217.58 104.202 218.3 106.872 219.66 109.232C221.5 112.392 224.3 114.912 227.66 116.292C231.42 117.672 233.26 117.512 238.06 117.512C244.06 117.512 249.42 114.102 252.22 109.162L261.02 112.652C257.26 120.842 249.02 126.602 239.58 126.602H232.22C219.18 126.602 208.54 115.812 208.54 102.602V92.5415C208.54 83.5415 212.14 77.4615 217.74 73.6415C221.74 70.4815 226.78 68.6115 232.22 68.6115V68.5815Z" fill="white"></path><path d="M303 99.8814C306.92 104.581 308.3 105.711 311.82 119.171H304.78C300.89 101.261 294.67 102.631 283.48 102.151H274.68V125.991H265.8V69.2314H295.16C303.64 69.2314 310.52 76.2014 310.52 84.8014V86.5014C310.52 92.1814 307.48 97.1214 303 99.8814ZM274.68 93.0714H294.68C298.52 93.0714 301.64 89.9114 301.64 86.0114V85.2814C301.64 81.3914 298.52 78.2214 294.68 78.2214H274.68V93.0714Z" fill="white"></path><path d="M359.52 101.021V97.2014H368.4V102.641C368.4 115.781 357.76 126.561 344.8 126.561H340.64C327.6 126.561 316.96 115.771 316.96 102.641V69.1514H325.92V101.021C325.92 110.101 333.2 117.561 342.16 117.561H343.2C352.16 117.561 359.52 110.101 359.52 101.021Z" fill="white"></path><path d="M415.75 126.001V78.1514C410.87 78.1514 402.55 107.511 397.11 126.001H385.99C380.47 107.511 372.15 78.1514 367.35 78.1514V82.4514H358.39V69.1514H367.35C378.07 69.1514 384.31 90.3214 391.51 113.101C398.79 90.3114 404.95 69.1514 415.75 69.1514H424.71V126.001H415.75Z" fill="white"></path><path d="M476.02 69.1514C481.46 69.1514 486.42 71.0214 490.5 74.1814C496.02 77.9914 499.62 84.0714 499.62 93.0814V102.001C499.62 115.221 488.98 126.001 476.02 126.001H464.1C457.06 126.001 452.5 121.301 452.5 114.891V69.1514H476.02ZM461.38 114.891C461.38 116.031 462.26 116.921 463.38 116.921H471.06C474.5 116.921 477.7 116.761 480.58 115.701C483.94 114.321 486.74 111.811 488.5 108.641C489.86 106.291 490.66 103.611 490.74 100.851V94.6914C490.74 87.8014 486.5 81.6314 480.26 79.2814C476.9 77.9814 474.5 78.1414 471.06 78.1414H461.38V114.891Z" fill="white"></path><path d="M531.07 87.0714C529.15 81.3114 527.95 78.5614 526.83 78.5614C525.63 78.5614 524.51 81.3214 522.59 87.0714L508.03 126.001H498.43L512.99 87.0714C516.35 78.6414 519.31 68.6614 526.83 68.6614C534.35 68.6614 537.31 78.6314 540.67 87.0714L555.23 126.001H545.63L531.07 87.0714Z" fill="white"></path><path d="M577.26 101.991V125.991H568.38V101.991C559.1 101.261 551.26 96.7214 543.98 69.1514H552.94C558.701 91.2914 562.541 92.9114 572.781 93.0714C583.101 92.9114 586.94 91.2914 592.701 69.1514H601.66C594.38 96.7214 586.54 101.261 577.26 101.991Z" fill="white"></path><defs><linearGradient id="paint0_linear_223_1155" x1="181.5" y1="158.001" x2="82" y2="158.001" gradientUnits="userSpaceOnUse"><stop stop-color="white"></stop><stop offset="1" stop-opacity="0"></stop></linearGradient></defs></svg>